<svg width="85" height="85" viewBox="0 0 85 85" fill="none" xmlns="http://www.w3.org/2000/svg">
<path d="M42.1875 84.375C18.925 84.375 0 65.45 0 42.1875C0 18.925 18.925 0 42.1875 0C65.45 0 84.375 18.925 84.375 42.1875C84.375 65.45 65.45 84.375 42.1875 84.375ZM42.1875 1.5625C19.7859 1.5625 1.5625 19.7859 1.5625 42.1875C1.5625 64.5891 19.7859 82.8125 42.1875 82.8125C64.5891 82.8125 82.8125 64.5891 82.8125 42.1875C82.8125 19.7859 64.5891 1.5625 42.1875 1.5625Z" fill="#2A4DFF"/>
<path d="M42.1875 78.125C22.3703 78.125 6.25 62.0047 6.25 42.1875C6.25 22.3703 22.3703 6.25 42.1875 6.25C62.0047 6.25 78.125 22.3703 78.125 42.1875C78.125 62.0047 62.0047 78.125 42.1875 78.125ZM42.1875 7.8125C23.2328 7.8125 7.8125 23.2328 7.8125 42.1875C7.8125 61.1422 23.2328 76.5625 42.1875 76.5625C61.1422 76.5625 76.5625 61.1422 76.5625 42.1875C76.5625 23.2328 61.1422 7.8125 42.1875 7.8125Z" fill="#2A4DFF"/>
<path d="M31.9043 29.7066C31.9043 33.8098 35.5793 35.8707 39.5496 37.4863L40.6246 37.9238V22.5645L39.7324 22.6926C34.9043 23.391 31.9043 26.077 31.9043 29.7066ZM39.0621 35.5801C35.1043 33.8145 33.4668 32.0723 33.4668 29.7051C33.4668 27.1254 35.5855 25.141 39.0621 24.3973V35.5801Z" fill="#2A4DFF"/>
<path d="M43.7495 61.7719L44.6308 61.6578C49.5354 61.0219 52.4636 58.4141 52.4636 54.6828C52.4636 50.5859 48.7917 48.5297 44.8245 46.9203L43.7495 46.4844V61.7719ZM45.312 48.825C49.2651 50.5844 50.9011 52.3219 50.9011 54.6828C50.9011 57.3828 48.8776 59.2766 45.312 59.9672V48.825Z" fill="#2A4DFF"/>
<path d="M45.3123 37.9609V24.4016C48.4154 25.0906 49.9904 26.8656 49.9982 29.6875H60.131C59.8732 23.9344 53.1482 18.775 45.3123 18.2734V14.0625H39.0623V18.2656C30.9326 18.7109 24.9107 23.4406 24.3091 29.9531C23.3326 40.4734 32.2513 43.9703 39.0623 46.4406V59.9297C35.9107 59.2594 34.3763 57.5375 34.3748 54.6875H24.242C24.4873 60.4781 31.2201 65.6766 39.0623 66.1797V70.3125H45.3123V66.1859C53.3248 65.7359 59.342 60.9875 60.0607 54.4469C61.2138 43.9672 52.1966 40.45 45.3123 37.9609ZM58.5076 54.2766C57.8529 60.2219 52.0982 64.4891 44.5138 64.6547L43.7498 64.6719V68.75H40.6248V64.6719L39.8638 64.6516C33.2654 64.4875 27.3904 60.75 26.0685 56.25H32.967C33.4216 58.5891 35.0748 60.9813 39.7357 61.6328L40.6248 61.7578V45.3453L40.1091 45.1594C31.8295 42.1625 25.042 38.9625 25.8654 30.0969C26.5013 23.2141 33.567 19.9328 39.8607 19.7984L40.6248 19.7828V15.625H43.7498V19.7844L44.5107 19.8031C51.0951 19.9656 56.9591 23.6656 58.2982 28.125H51.3873C50.7857 25.1609 48.4576 23.2453 44.642 22.6922L43.7498 22.5641V39.0594L44.2654 39.2453C52.631 42.2594 59.4748 45.4719 58.5076 54.2766Z" fill="#2A4DFF"/>
</svg>
