<?xml version="1.0" encoding="UTF-8"?><svg id="b" xmlns="http://www.w3.org/2000/svg" width="84.38" height="84.38" xmlns:xlink="http://www.w3.org/1999/xlink" viewBox="0 0 84.38 84.38"><defs><linearGradient id="d" x1="42.19" y1="0" x2="42.19" y2="84.38" gradientUnits="userSpaceOnUse"><stop offset="0" stop-color="#f9fafb" stop-opacity="0"/><stop offset=".5" stop-color="#f9fafb" stop-opacity=".7"/><stop offset="1" stop-color="#f9fafb"/></linearGradient></defs><g id="c"><path d="M42.19,84.38C18.92,84.38,0,65.45,0,42.19S18.92,0,42.19,0s42.19,18.92,42.19,42.19-18.93,42.19-42.19,42.19ZM42.19,1.57C19.79,1.57,1.56,19.79,1.56,42.19s18.22,40.63,40.62,40.63,40.62-18.22,40.62-40.63S64.59,1.57,42.19,1.57Z" style="fill:#2a4dff;"/><path d="M42.19,78.13c-19.82,0-35.94-16.12-35.94-35.94S22.37,6.25,42.19,6.25s35.94,16.12,35.94,35.94-16.12,35.94-35.94,35.94ZM42.19,7.82C23.23,7.82,7.81,23.24,7.81,42.19s15.42,34.38,34.38,34.38,34.38-15.42,34.38-34.38S61.14,7.82,42.19,7.82Z" style="fill:#2a4dff;"/><path d="M31.9,29.71c0,4.1,3.67,6.16,7.65,7.78l1.08.44v-15.36l-.89.13c-4.83.7-7.83,3.38-7.83,7.01ZM39.06,35.58c-3.96-1.77-5.6-3.51-5.6-5.88,0-2.58,2.12-4.56,5.6-5.31v11.18Z" style="fill:#2a4dff;"/><path d="M43.75,61.77l.88-.11c4.9-.64,7.83-3.24,7.83-6.97,0-4.1-3.67-6.15-7.64-7.76l-1.08-.44v15.29ZM45.31,48.83c3.95,1.76,5.59,3.5,5.59,5.86,0,2.7-2.02,4.59-5.59,5.28v-11.14Z" style="fill:#2a4dff;"/><path d="M45.31,37.96v-13.56c3.1.69,4.68,2.46,4.69,5.29h10.13c-.26-5.75-6.98-10.91-14.82-11.41v-4.21h-6.25v4.2c-8.13.45-14.15,5.17-14.75,11.69-.98,10.52,7.94,14.02,14.75,16.49v13.49c-3.15-.67-4.69-2.39-4.69-5.24h-10.13c.25,5.79,6.98,10.99,14.82,11.49v4.13h6.25v-4.13c8.01-.45,14.03-5.2,14.75-11.74,1.15-10.48-7.86-14-14.75-16.49ZM58.51,54.28c-.65,5.95-6.41,10.21-13.99,10.38l-.76.02v4.08h-3.12v-4.08l-.76-.02c-6.6-.16-12.47-3.9-13.8-8.4h6.9c.45,2.34,2.11,4.73,6.77,5.38l.89.12v-16.41l-.52-.19c-8.28-3-15.07-6.2-14.24-15.06.64-6.88,7.7-10.16,14-10.3l.76-.02v-4.16h3.12v4.16l.76.02c6.58.16,12.45,3.86,13.79,8.32h-6.91c-.6-2.96-2.93-4.88-6.75-5.43l-.89-.13v16.5l.52.19c8.37,3.01,15.21,6.23,14.24,15.03Z" style="fill:#2a4dff;"/><path d="M84.37,42.19c0,23.26-18.92,42.19-42.18,42.19S0,65.45,0,42.19,18.92,0,42.19,0s42.18,18.93,42.18,42.19Z" style="fill:url(#d);"/></g></svg>